<svg data-v-fde0c5aa="" xmlns="http://www.w3.org/2000/svg" viewBox="0 0 300 300" class="iconAbove"><!----><defs data-v-fde0c5aa=""><!----></defs><rect data-v-fde0c5aa="" fill="#EADEE5" x="0" y="0" width="300px" height="300px" class="logo-background-square"></rect><defs data-v-fde0c5aa=""><!----></defs><g data-v-fde0c5aa="" id="9412b70e-8819-4f5a-9eac-442f9123bf67" fill="#240D1B" transform="matrix(5.724350737155421,0,0,5.724350737155421,13.416996788750422,169.5614286386183)"><path d="M8.60 9.96L8.60 9.96L8.60 9.96Q8.60 11.25 7.66 11.96L7.66 11.96L7.66 11.96Q6.73 12.67 5.06 12.67L5.06 12.67L1.15 12.67L1.15 3.04L4.65 3.04L4.65 3.04Q8.04 3.04 8.04 5.38L8.04 5.38L8.04 5.38Q8.04 6.23 7.56 6.82L7.56 6.82L7.56 6.82Q7.08 7.40 6.21 7.59L6.21 7.59L6.21 7.59Q7.36 7.73 7.98 8.36L7.98 8.36L7.98 8.36Q8.60 9.00 8.60 9.96ZM6.73 5.54L6.73 5.54L6.73 5.54Q6.73 4.76 6.19 4.42L6.19 4.42L6.19 4.42Q5.66 4.09 4.65 4.09L4.65 4.09L2.45 4.09L2.45 7.14L4.65 7.14L4.65 7.14Q5.69 7.14 6.21 6.74L6.21 6.74L6.21 6.74Q6.73 6.35 6.73 5.54ZM7.28 9.86L7.28 9.86L7.28 9.86Q7.28 8.16 4.89 8.16L4.89 8.16L2.45 8.16L2.45 11.63L4.99 11.63L4.99 11.63Q6.19 11.63 6.73 11.18L6.73 11.18L6.73 11.18Q7.28 10.74 7.28 9.86ZM16.50 9.24L11.22 9.24L11.22 9.24Q11.22 10.51 11.75 11.20L11.75 11.20L11.75 11.20Q12.28 11.89 13.29 11.89L13.29 11.89L13.29 11.89Q14.09 11.89 14.57 11.57L14.57 11.57L14.57 11.57Q15.05 11.25 15.22 10.75L15.22 10.75L16.30 11.06L16.30 11.06Q15.64 12.81 13.29 12.81L13.29 12.81L13.29 12.81Q11.65 12.81 10.79 11.83L10.79 11.83L10.79 11.83Q9.93 10.86 9.93 8.93L9.93 8.93L9.93 8.93Q9.93 7.10 10.79 6.12L10.79 6.12L10.79 6.12Q11.65 5.14 13.24 5.14L13.24 5.14L13.24 5.14Q16.50 5.14 16.50 9.07L16.50 9.07L16.50 9.24ZM11.24 8.29L15.23 8.29L15.23 8.29Q15.13 7.12 14.64 6.59L14.64 6.59L14.64 6.59Q14.14 6.05 13.22 6.05L13.22 6.05L13.22 6.05Q12.33 6.05 11.80 6.65L11.80 6.65L11.80 6.65Q11.28 7.25 11.24 8.29L11.24 8.29ZM19.95 12.81L19.95 12.81L19.95 12.81Q18.84 12.81 18.28 12.22L18.28 12.22L18.28 12.22Q17.72 11.63 17.72 10.61L17.72 10.61L17.72 10.61Q17.72 9.46 18.47 8.85L18.47 8.85L18.47 8.85Q19.23 8.23 20.91 8.19L20.91 8.19L22.57 8.16L22.57 7.76L22.57 7.76Q22.57 6.86 22.19 6.47L22.19 6.47L22.19 6.47Q21.81 6.08 20.99 6.08L20.99 6.08L20.99 6.08Q20.16 6.08 19.78 6.36L19.78 6.36L19.78 6.36Q19.41 6.64 19.33 7.25L19.33 7.25L18.05 7.14L18.05 7.14Q18.36 5.14 21.01 5.14L21.01 5.14L21.01 5.14Q22.41 5.14 23.11 5.78L23.11 5.78L23.11 5.78Q23.82 6.42 23.82 7.63L23.82 7.63L23.82 10.81L23.82 10.81Q23.82 11.36 23.96 11.64L23.96 11.64L23.96 11.64Q24.10 11.92 24.51 11.92L24.51 11.92L24.51 11.92Q24.68 11.92 24.91 11.87L24.91 11.87L24.91 12.63L24.91 12.63Q24.45 12.74 23.96 12.74L23.96 12.74L23.96 12.74Q23.28 12.74 22.97 12.38L22.97 12.38L22.97 12.38Q22.65 12.02 22.61 11.26L22.61 11.26L22.57 11.26L22.57 11.26Q22.10 12.11 21.48 12.46L21.48 12.46L21.48 12.46Q20.85 12.81 19.95 12.81ZM20.23 11.89L20.23 11.89L20.23 11.89Q20.91 11.89 21.44 11.58L21.44 11.58L21.44 11.58Q21.96 11.27 22.27 10.74L22.27 10.74L22.27 10.74Q22.57 10.20 22.57 9.63L22.57 9.63L22.57 9.02L21.23 9.05L21.23 9.05Q20.36 9.06 19.91 9.23L19.91 9.23L19.91 9.23Q19.46 9.39 19.22 9.73L19.22 9.73L19.22 9.73Q18.98 10.08 18.98 10.63L18.98 10.63L18.98 10.63Q18.98 11.23 19.31 11.56L19.31 11.56L19.31 11.56Q19.63 11.89 20.23 11.89ZM26.79 8.94L26.79 8.94L26.79 8.94Q26.79 10.42 27.25 11.13L27.25 11.13L27.25 11.13Q27.72 11.84 28.66 11.84L28.66 11.84L28.66 11.84Q29.31 11.84 29.75 11.48L29.75 11.48L29.75 11.48Q30.19 11.13 30.30 10.39L30.30 10.39L31.54 10.47L31.54 10.47Q31.40 11.54 30.63 12.17L30.63 12.17L30.63 12.17Q29.87 12.81 28.69 12.81L28.69 12.81L28.69 12.81Q27.14 12.81 26.32 11.83L26.32 11.83L26.32 11.83Q25.50 10.85 25.50 8.97L25.50 8.97L25.50 8.97Q25.50 7.10 26.33 6.12L26.33 6.12L26.33 6.12Q27.15 5.14 28.68 5.14L28.68 5.14L28.68 5.14Q29.81 5.14 30.56 5.73L30.56 5.73L30.56 5.73Q31.31 6.32 31.50 7.35L31.50 7.35L30.24 7.44L30.24 7.44Q30.14 6.83 29.75 6.47L29.75 6.47L29.75 6.47Q29.36 6.10 28.64 6.10L28.64 6.10L28.64 6.10Q27.67 6.10 27.23 6.75L27.23 6.75L27.23 6.75Q26.79 7.40 26.79 8.94ZM39.11 8.97L39.11 8.97L39.11 8.97Q39.11 10.91 38.25 11.86L38.25 11.86L38.25 11.86Q37.40 12.81 35.77 12.81L35.77 12.81L35.77 12.81Q34.15 12.81 33.33 11.82L33.33 11.82L33.33 11.82Q32.50 10.83 32.50 8.97L32.50 8.97L32.50 8.97Q32.50 5.14 35.81 5.14L35.81 5.14L35.81 5.14Q37.51 5.14 38.31 6.07L38.31 6.07L38.31 6.07Q39.11 7.01 39.11 8.97ZM37.82 8.97L37.82 8.97L37.82 8.97Q37.82 7.44 37.36 6.74L37.36 6.74L37.36 6.74Q36.91 6.05 35.83 6.05L35.83 6.05L35.83 6.05Q34.75 6.05 34.27 6.76L34.27 6.76L34.27 6.76Q33.79 7.46 33.79 8.97L33.79 8.97L33.79 8.97Q33.79 10.43 34.27 11.17L34.27 11.17L34.27 11.17Q34.74 11.90 35.76 11.90L35.76 11.90L35.76 11.90Q36.87 11.90 37.34 11.19L37.34 11.19L37.34 11.19Q37.82 10.48 37.82 8.97ZM46.57 12.67L45.34 12.67L45.34 7.98L45.34 7.98Q45.34 7.25 45.19 6.85L45.19 6.85L45.19 6.85Q45.05 6.45 44.73 6.27L44.73 6.27L44.73 6.27Q44.42 6.09 43.81 6.09L43.81 6.09L43.81 6.09Q42.92 6.09 42.41 6.70L42.41 6.70L42.41 6.70Q41.90 7.31 41.90 8.39L41.90 8.39L41.90 12.67L40.67 12.67L40.67 6.86L40.67 6.86Q40.67 5.56 40.63 5.28L40.63 5.28L41.79 5.28L41.79 5.28Q41.79 5.31 41.80 5.46L41.80 5.46L41.80 5.46Q41.81 5.61 41.82 5.81L41.82 5.81L41.82 5.81Q41.83 6.00 41.84 6.54L41.84 6.54L41.86 6.54L41.86 6.54Q42.29 5.78 42.84 5.46L42.84 5.46L42.84 5.46Q43.40 5.14 44.23 5.14L44.23 5.14L44.23 5.14Q45.45 5.14 46.01 5.75L46.01 5.75L46.01 5.75Q46.57 6.35 46.57 7.75L46.57 7.75L46.57 12.67Z"></path></g><defs data-v-fde0c5aa=""><linearGradient data-v-fde0c5aa="" gradientTransform="rotate(25)" id="066c8082-152b-4693-a0a5-dd7846be08d3" x1="0%" y1="0%" x2="100%" y2="0%"><stop data-v-fde0c5aa="" offset="0%" stop-color="#3C1143" stop-opacity="1"></stop><stop data-v-fde0c5aa="" offset="100%" stop-color="#C25178" stop-opacity="1"></stop></linearGradient></defs><g data-v-fde0c5aa="" id="845b437b-733b-4f87-9be0-fcf796b4c618" stroke="none" fill="url(#066c8082-152b-4693-a0a5-dd7846be08d3)" transform="matrix(1.3989386581659247,0,0,1.3989386581659247,79.51065443444679,42.55535932375053)"><path d="M63.738 11.716c-1.346-.751-3.007-.715-4.748-.038a4.45 4.45 0 0 1 1.969.545c3.614 2.016 3.597 8.938-.041 15.459-.668 1.198-1.337 2.395-2.004 3.593-1.269 2.274-3.193 4.725-4.067 7.161-.211.587-.81 2.75-.689 3.273.458 1.991 4.407-5.333 4.681-5.824 1.62-2.903 3.24-5.807 4.858-8.71 3.637-6.522 3.655-13.444.041-15.459zM76.843 90.36c-.569 0-1.07-.114-1.513-.341-1.473-.758-1.814-2.49-2.144-4.168-.296-1.511-.576-2.938-1.579-3.457-1.5-.775-4.547-.281-6.369.018l-.198.032c-1.651.269-3.417.817-5.287 1.399-2.51.779-5.103 1.586-7.479 1.683l-.966.039.076-.962c.043-.545.293-1.114.559-1.72.545-1.239.72-1.847.321-2.161-.835-.66-3.362-.4-7.505.772l-.409.116c-.361.1-.882.262-1.517.46-5.588 1.74-11.76 3.45-14.293 1.695-.686-.477-1.075-1.183-1.125-2.045a.857.857 0 0 1 .807-.904c.477-.003.877.333.905.807.019.338.135.558.39.733 2.059 1.427 9.867-1.007 12.807-1.923.658-.205 1.197-.373 1.57-.477l.398-.111c3.681-1.042 7.323-1.816 9.035-.47 1.507 1.19.712 3 .187 4.197-.019.042-.035.082-.054.122 1.835-.261 3.836-.884 5.784-1.49 1.845-.572 3.752-1.166 5.522-1.453l.197-.032c2.164-.353 5.434-.884 7.432.152 1.737.898 2.13 2.892 2.475 4.65.262 1.333.51 2.594 1.245 2.973.645.331 1.842.108 3.466-.633a.857.857 0 1 1 .712 1.559c-1.38.63-2.511.94-3.45.94zM33.647 60.737c-2.915-.959-5.222-2.576-6.443-4.288-6.1 13.144-8.838 23.231-6.269 24.664 2.661 1.484 10.229-6.766 18.546-19.611-1.721.156-3.755-.082-5.834-.765z"></path><path d="M60.113 10.875c-3.425-1.91-9.332 2.159-13.195 9.086L31.771 47.119l.053.029a203.09 203.09 0 0 0-4.244 8.508c1.598 1.378 3.888 2.653 6.576 3.537 2.167.713 4.274 1.065 6.114 1.093a209.739 209.739 0 0 0 3.844-6.282l.052.029 15.149-27.158c3.864-6.927 4.22-14.09.798-16z"></path></g><!----></svg>